<?xml version="1.0" encoding="UTF-8"?><svg xmlns="http://www.w3.org/2000/svg" viewBox="0 0 212.21 154.03"><path d="M206.48,17.43c-1-1.46-1.11-2.41-.32-4.13,1.1-2.4,1.74-5.16,1.9-7.81.18-3.09-1.9-5-5.03-5.4-3.59-.45-6.65.72-9.06,3.37-.97,1.07-1.71,1.34-3.17.76-8.27-3.31-16.61-3.27-24.87.07-1.26.51-2.01.47-2.97-.63-2.55-2.89-5.79-4.16-9.68-3.47-2.74.49-4.32,2.08-4.64,4.82-.36,3.12.07,6.12,1.98,8.7.82,1.11.92,1.87.01,3.05-2.99,3.89-5.01,8.26-5.91,13.12-.15.8-.54,1.67-1.09,2.25-2.96,3.13-6.39,5.4-10.76,6.22-6.13,1.15-12.16.39-18.15-.8-9.95-1.97-19.91-3.06-30.02-1.18-12.87,2.4-23.76,8.05-31.5,18.93-1.28,1.8-2.27,3.81-3.57,6.03,2.42,1.13,4.42,2.08,6.53,3.06-.36,1.14-.7,2.24-1.14,3.66-2.33-1.18-4.45-2.26-6.71-3.4-2.84,7.2-3.06,14.55-2.2,22.84,3.21-1.64,5.85-2.99,8.46-4.33,1.07,4.23,1.06,4.3-3.01,5.84-1.65.63-3.37,1.1-5.04,1.63.32,4.18.62,8.2.96,12.63,2.87-.56,5.56-1.09,8.49-1.67-.12,1.43-.24,2.79-.37,4.35-2.98.23-5.76.44-8.51.65-1.94,7.15-1.98,7.48,3.1,11.56,2.01,1.62,2.2,3.29,1.48,6.19-2.93-2.78-5.53-5.24-8.23-7.8-2.49,3.78-5.98,6.25-10.21,7.8-.54.2-1.2,1.65-.97,2.1,1.32,2.61,2.85,5.11,4.38,7.6.74,1.21,1.9,1.34,3.04.6,3.65-2.36,7.28-4.75,10.89-7.17.66-.44,1.21-1.04,2.01-1.75.31,1.47.54,2.53.76,3.59,1.22,5.88,2.32,11.8,3.71,17.64,1.25,5.22,3.71,6.99,9.01,7.03,3.6.02,7.19,0,10.79-.01,1.54,0,3.07,0,4.68,0,0-2.31.26-4.28-.06-6.16-.49-2.88-2.24-5.6-5.12-5.71-4.03-.16-4.55-2.41-4.84-5.42-.11-1.16-.51-2.29-.67-3.44-.43-3.14-.69-6.31,1.65-8.9,4.69-5.19,9.45-10.3,14.01-15.26.37,1.41.38,3.5,1.39,4.81,1.12,1.45,3.09,2.34,4.84,3.16,1.53.72,3.26,1.01,4.91,1.46.52.14,1.08.16,1.62.26.45.08.9.2,1.76.39-5.66,2.11-10.01.42-13.91-3.17-1.56,4.13-1.54,4.25,1.92,5.94,1.11.54,2.3.96,3.5,1.28,1.18.31,2.42.42,3.88.66-4.27,1.53-7.76.36-10.95-2.05-1.74,2.09-1.87,4.13-.71,6.55,3.2,6.69,6.32,13.42,9.22,20.24,1.87,4.4,2.88,5.37,7.6,5.38,2.5,0,5,0,7.51,0,2.48,0,4.96,0,7.68,0,0-1.68.01-3.08,0-4.47-.06-4.59-3.12-7.84-7.71-7.98-1.34-.04-1.92-.45-2.28-1.72-.98-3.38-2.04-6.73-3.17-10.05-.7-2.05-.39-3.68,1.05-5.37,4.65-5.43,8.92-11.11,9.76-18.81,6.91,3.15,13.93,4.72,21.31,4.62.46,0,1.11.9,1.38,1.51,2.89,6.47,5.4,13.13,8.67,19.4,2.13,4.07,3.76,7.98,3.38,12.62-.12,1.45.16,2.97.42,4.42.55,3.11,2.77,5.55,5.75,5.6,9.45.17,18.91.09,28.36.1.14,0,.27-.14.7-.36,0-1.55.02-3.25,0-4.95-.05-4.39-2.31-7.05-6.63-8.11-.69-.17-1.61-1.02-1.71-1.66-.53-3.24-.71-6.43.46-9.69,3.94-11.02,7.66-22.12,11.53-33.17.37-1.07,1.07-2.08,1.82-2.94,3.48-4.01,5.99-8.54,7.63-13.59,2.11-6.5,2.47-13.19,2.34-19.93-.03-1.82.46-2.99,2.01-4.06,4.09-2.82,7.1-6.61,8.74-11.32,3.32-9.58,1.54-18.47-4.07-26.69ZM157.03,12.33c-3.78-1.54-3.27-4.63-3.17-7.75,2.91-.22,5.14.77,6.18,3.18.87,2.03,2.12,1.63,3.57,1.33,3.81-.79,7.61-1.61,11.42-2.38.54-.11,1.11-.02,1.75.27-4.23,1.72-8.4,3.37-10.81,7.45,3.53-.98,7.08-1.97,10.55-2.94,1.09,2.12-.08,2.44-1.1,2.78-2.85.95-4.75,2.86-5.85,5.69,2.05-.6,4-1.23,5.98-1.7.44-.1,1.01.38,1.52.59-.3.55-.48,1.25-.93,1.62-1.16.93-2.43,1.7-3.7,2.56,1.05,1.44,1.78,2.44,2.52,3.45,2.49-2.74,3.96-2.68,6.66.2.74-1.08,1.47-2.16,2.1-3.08-.12-2.82-4.6-1.98-4.07-5.82,2.56.78,4.88,1.48,7.88,2.39-1.46-1.77-2.74-3.2-3.88-4.72-1.06-1.41-3.84-.76-4.17-3.3,3.75-.39,6.96.51,11.66,3.34-1.41-2.68-3.1-4.31-5.17-5.45-2-1.11-4.17-1.93-6.26-3.09,2.69-.6,5.3.06,7.91.72,2.63.66,5.26,1.31,8.02,2,1.24-3.48,3.29-5.49,6.99-5.05.8,4.24.23,5.8-2.55,7.57,1.44,2.86,2.88,5.72,4.32,8.57-.17.08-.35.17-.52.25-2.1-1.99-4.2-3.98-6.5-6.16,1.54,4.15,3.29,7.79,4.24,11.63,1.79,7.27-1.71,13.14-8.84,15.59-2.34.8-4.71,1.52-7.07,2.28,0,.26,0,.52.01.78,2.29.27,4.58.54,6.89.82q-.58,1.46-9.02,2.25c1.58.81,2.76,1.42,4.02,2.06-2.25.96-6,.21-7.22-1.34-.84-1.08-.02-2.91,1.9-3.56,2.59-.87,2.88-2.72,2.74-4.71-2.38,1.15-4.62,3.09-6.83,3.06-2.22-.03-4.41-2.03-6.47-3.09-.41,2.48.1,3.25,2.69,4.8.97.58,1.73,1.78,2.12,2.86.12.32-1.25,1.53-2.1,1.78-1.7.5-3.52.63-5.29.91-.06-.25-.12-.51-.18-.76,1.18-.6,2.36-1.19,3.97-2-3.25-.71-6.65.99-9.38-2.3,2.8-.28,5.05-.5,7.3-.73.04-.16.09-.32.13-.48-.63-.33-1.23-.74-1.9-.98-1.17-.42-2.38-.74-3.58-1.08-9.04-2.64-12.73-9.16-10-18.16.96-3.15,2.52-6.11,3.56-9.48-2.09,1.98-4.18,3.96-6.33,6.01.19-3.44,1.91-6.13,4.3-8.72ZM184.46,53.9c-.13,2.9-2.27,4.87-5.63,5.04-3.84.19-6.23-1.61-6.76-5.05,2.25-.94,4.3-1.8,6.27-2.62,1.99.85,4.03,1.73,6.13,2.63ZM151.17,25.76c-1.42,12.03,4.02,20.89,13.16,28.18-4.43,0-10.76-4.52-13.4-9.48-3.33-6.26-3.02-12.51.24-18.7ZM66.55,122.9c-.22,1.28-.69,2.52-1.14,4.07-3.91-3.76-5.39-8.24-5.41-12.98,1.98,2.35,4.03,4.72,6,7.17.36.45.65,1.2.56,1.74ZM67.75,120.7c-3.6-4.06-5.3-8.64-5.97-13.46,2.85,3.23,5.75,6.52,8.86,10.05-.7.82-1.72,2.03-2.88,3.41ZM78.42,111.23c-3.18,4.14-2.96,3.68-6.54,1.17-4.86-3.41-7.7-8.18-8.58-14.13,3.71,5.81,8.28,10.53,15.19,12.4-.05.41-.04.51-.08.56ZM90.1,107.4c7.36,5.59,8.03,5.91,14.8,7.18-4.85,2.92-13.95-1.49-14.8-7.18ZM157.94,65.3c1.77,3.18,3.57,6.41,5.87,9.2,4.05,4.91,8.49,9.51,12.69,14.17,5.8-5.32,11.95-10.97,17.73-16.27-.5,12.6-13.95,27.17-25.95,27.39-3.39-10.77-6.85-15.52-13.24-17.82,4.87,6.05,7.96,12.6,8.82,20.02.6,5.19.78,10.44,1.15,15.66.44,6.23.89,12.47,1.34,18.7.16,2.21,1.1,3.65,3.29,4.6,3.52,1.53,4.76,4.88,4.03,9.88h-2.61c-1.29-7.26-1.48-7.55-4.62-7.31.38,2.31.76,4.64,1.19,7.23h-2.41c-.89-2.31-1.59-4.55-2.65-6.62-.27-.54-1.62-.53-2.42-.76.32,2.6.61,4.94.92,7.44h-2.94c-.04-.91-.09-1.81-.13-2.72-.1-1.83-.79-3.07-2.79-3.48-.61-.12-1.07-1.02-1.57-1.58-.09-.1-.09-.31-.07-.45.78-6.7-2.46-12.05-5.77-17.39-.41-.65-.68-1.39-1.25-2.57,3.27,1.37,6.16,1.34,9.65-.44-8.87-1.13-13.71-5.82-14.81-12.77,1.39,1.14,3.47,3.13,5.82,4.7,2.28,1.52,4.84,2.63,7.47,3.62-13.26-11.49-20.97-25.07-17.84-42.48,1.85,3.88,3.64,8.44,6.11,12.59,2.51,4.22,6.36,7.2,11.14,8.93-5.44-5.59-9.52-11.95-11.7-19.48-2.18-7.51-2.23-15.08-.78-22.8-2.07,2.11-3.94,7.66-4.36,11.97-.14,1.47-.66,3.02-1.39,4.31-3.84,6.78-4.45,14.04-3.45,21.58.11.84.32,1.67.48,2.5-.19.13-.38.26-.57.38-1.93-2.85-3.86-5.69-5.85-8.62.04,4.04,1.52,7.55,3.6,10.91,1.37,2.21,2.52,4.56,3.92,7.11-7.24-.29-12.93-10.33-14.03-23.71-4.11,4.56-2.79,12.44,3.77,22.58-7.34-1.28-12.63-9.66-14.8-23.81-2.78,6.5-1.78,12.31,1.39,18.07-5.81-1.53-11.09-8.09-16.05-19.75-.38,5.33.74,10.19,3.19,14.9-1.8.73-3.51,1.42-5.21,2.11-3.4-4.34-3.8-15.53-.96-26.79-6.14,3.9-7.43,15.34-3.39,29.89-5.02-.26-9.24-6.44-13.84-20.04-.32,9.77,3.1,17.98,10.65,24.73-.77,1.12-1.4,2.4-2.38,3.31-.52.49-1.7.64-2.46.44-4.48-1.12-8.06-3.68-10.95-7.24-10.21-12.55-11.06-32.6-1.95-45.9.35-.51.75-.98,1.54-2.02-6.83,17.74-8.85,34.1,7.63,47.28-1.68-3-3.64-5.88-4.98-9.02-6.21-14.53-2.38-33.21,8.9-44.25,3.05-2.98,6.98-4.79,11.17-4.87-5.63,3.84-9.78,8.37-11.56,14.6-1.8,6.26-1.2,12.26,2.46,17.87-.59-11.27,3.73-20.41,11.87-27.85,2.72-2.48,5.86-4.28,10.41-4.53-6.29,4.32-9.92,9.35-8.34,17.21,3.42-8.78,8.89-14.54,18.31-15.57-4.06,3.41-7.25,7.07-6.07,12.51,2.23-2.41,4.36-5.18,6.96-7.39,2.62-2.22,5.82-3.55,10.09-3.44-6.61,5.21-8.98,11.82-8.54,19.49.34,5.91,2.1,11.32,6.46,16.2-3.98-14.77-1.67-27.2,11.06-36.37-6.95,9.49-8.34,19.63-3.59,30.55.04-.79-.05-1.62.13-2.38.95-4,1.51-8.17,3.05-11.94,2.6-6.34,5.82-12.43,8.8-18.62.36-.76.82-1.47,1.6-2.87.44,4.07,2.04,7.03,1.59,10.76-1.18,9.9,1.91,18.5,9.52,25.22.8.71,1.75,1.26,2.84,1.76-5.26-7.13-8.17-14.98-8.2-24.57,4.93,5.76,11.47,7.88,17.05,11.51,4.13,2.69,7.71,6.21,11.72,9.51,4.22-6.12,10.45-10.47,18.27-13.37-3.3,10.66-12.8,15.6-19.3,22.74-3.67-3.43-7.35-6.68-10.82-10.14-3.41-3.4-6.6-7-10.17-10.82.4,1.69.46,3.36,1.18,4.66ZM193.09,54.01c3.03-3.85,6.76-7.81,9.55-12.34,2.86-4.64,3.48-10.08,2.75-16.04,6.38,11.47-.53,26.17-12.31,28.38Z"/><path d="M12.23,101.79c2.36-3.64,3.31-3.96,6.8-2.75,3.36,1.16,7.17-1.06,8.49-4.44,2.1-5.36-2.06-11.05-8.21-11.24-6.29-.19-14.31,5.45-16.21,11.5-.17.53-.04,1.44.32,1.81,2.42,2.49,5.27,4.32,8.81,5.13Z"/><path d="M18.11,121.74c-.56-.23-1.19-.49-1.75-.43-3.29.36-6.13,1.61-8.32,4.23-.85,1.02-.75,1.8.2,2.56,1.93,1.56,3.76,3.31,5.86,4.62,6.06,3.76,12.66,4.83,19.32,3.69-1.88-3.69-3.72-7.3-5.38-10.57-3.27-1.36-6.59-2.75-9.92-4.11Z"/><path d="M14.53,117.78c-2.09-3.64-3.52-7.44-3.15-11.75.03-.36-.26-.95-.57-1.12-3.18-1.66-6.4-3.25-9.61-4.87-2.63,5.84-.71,18.13,3.95,23.53,2.34-3.16,5.48-4.94,9.37-5.21.01-.29.08-.48.02-.59Z"/><path d="M103.75,55.07c-6.93,6.25-7.96,22.78-1.11,29.43-1.3-5.13-1.2-9.97-.22-14.99.96-4.89.95-9.97,1.32-14.44Z"/><path d="M113.09,57.6c-5.99,6.27-5.23,17.56,1.19,22.55-2.81-7.33-2.67-14.64-1.19-22.55Z"/><path d="M156.92,111.13c-4.6-5.79-9.57-12.04-14.3-17.99,0,7.39,7.96,17.18,14.3,17.99Z"/><path d="M156.35,89.78c-5.47-6.22-8.89-13.23-10.85-21.33-2.05,7.24,4.36,19.93,10.85,21.33Z"/><path d="M74.85,69.41v-7.26c-1.46,4.32-1.44,6.52,0,7.26Z"/><path d="M188.76,29.11c1.49-.8,2.89-1.26,3.49-3.06.15-.46,1.23-.84,1.86-.82.32.01.87,1.03.85,1.57-.06,2.21-1.36,3.58-3.38,4.29-1.15.41-2.33.73-3.7,1.15,1.22,2.92,2.35,5.61,3.53,8.44,1.64-1.48,3.31-2.79,4.74-4.33,2.32-2.49,3.5-5.49,2.28-8.82-.87-2.38-2.08-4.56-1.67-7.25.11-.73-.51-1.58-.98-2.87-1.05,4.32-1.68,4.91-6.29,6.26-4.23,1.24-6.28,6.14-4.32,9.17,1.12-1.21,2.1-2.93,3.59-3.72Z"/><path d="M160.6,36.52c1.43,1.5,3.08,2.78,4.67,4.19.75-1.87,1.36-3.55,2.1-5.18,1.49-3.27,1.52-3.25-1.88-4.28-3.04-.92-4.19-2.92-3.44-6.02,1.3-.33,2.1-.08,2.71,1.36.39.92,1.48,1.89,2.44,2.16,1.81.5,2.79,1.57,3.44,3.18.17.43.43.83.74,1.44,1.55-5.42-.23-8.82-5.27-10.03-3.17-.76-4.8-2.59-4.96-5.86-.19,0-.39.02-.58.03-.23,1.65-.45,3.3-.71,4.94-.15.96-.18,2.02-.63,2.84-2.09,3.87-1.71,8,1.37,11.22Z"/></svg>
